<svg xmlns="http://www.w3.org/2000/svg" width="1440" height="1000" viewBox="0 0 1440 1000" role="img" aria-label="03 · Chi tiết Trust Profile"><rect x="0" y="0" width="1440" height="1000" rx="0" fill="#F8FAFC"></rect><rect x="0" y="0" width="224" height="1000" rx="0" fill="white"></rect><path d="M224 0L224 1000" stroke="#E3E8EF"></path><rect x="28" y="30" width="36" height="36" rx="10" fill="#C62828"></rect><text x="37" y="56" fill="white" font-size="24" font-weight="700" font-family="Be Vietnam Pro, Segoe UI, Arial, sans-serif">V</text><text x="76" y="57" fill="#17212F" font-size="25" font-weight="700" font-family="Be Vietnam Pro, Segoe UI, Arial, sans-serif">VAULT</text><text x="28" y="102" fill="#68788D" font-size="10" font-weight="600" font-family="Be Vietnam Pro, Segoe UI, Arial, sans-serif">DEAL WORKSPACE</text><rect x="16" y="131" width="192" height="44" rx="8" fill="#FEF2F2"></rect><g transform="translate(30 143) scale(0.8333333333333334)" fill="none" stroke="#C62828" stroke-width="1.7" stroke-linecap="round" stroke-linejoin="round"><path d="M3 21V3h12v18M15 9h6v12M6 7h1m3 0h1M6 11h1m3 0h1M6 15h1m3 0h1M7 21v-3h4v3"></path></g><text x="62" y="159" fill="#C62828" font-size="13" font-weight="600" font-family="Be Vietnam Pro, Segoe UI, Arial, sans-serif">Doanh nghiệp</text><a href="#companies" data-target="companies"><rect x="16" y="131" width="192" height="44" fill="transparent"></rect></a><g transform="translate(30 195) scale(0.8333333333333334)" fill="none" stroke="#68788D" stroke-width="1.7" stroke-linecap="round" stroke-linejoin="round"><path d="M3 7V4h6l3 3h9v13H3Z"></path></g><text x="62" y="211" fill="#68788D" font-size="13" font-weight="400" font-family="Be Vietnam Pro, Segoe UI, Arial, sans-serif">Data Rooms</text><a href="#rooms" data-target="rooms"><rect x="16" y="183" width="192" height="44" fill="transparent"></rect></a><rect x="20" y="777" width="184" height="102" rx="10" fill="#F8FAFC"></rect><g transform="translate(35 793) scale(0.8333333333333334)" fill="none" stroke="#68788D" stroke-width="1.7" stroke-linecap="round" stroke-linejoin="round"><path d="M6 10h12v11H6ZM8 10V6a4 4 0 0 1 8 0v4"></path></g><text x="35" y="829" fill="#17212F" font-size="12" font-weight="600" font-family="Be Vietnam Pro, Segoe UI, Arial, sans-serif">Không gian nội bộ</text><text x="35" y="851" fill="#68788D" font-size="11" font-weight="400" font-family="Be Vietnam Pro, Segoe UI, Arial, sans-serif">Dữ liệu minh họa</text><path d="M20 904H204" stroke="#E3E8EF"></path><rect x="28" y="929" width="34" height="34" rx="17" fill="#F1E5E5"></rect><text x="36" y="952" fill="#C62828" font-size="11" font-weight="600" font-family="Be Vietnam Pro, Segoe UI, Arial, sans-serif">LT</text><text x="74" y="944" fill="#17212F" font-size="12" font-weight="600" font-family="Be Vietnam Pro, Segoe UI, Arial, sans-serif">Linh Trần</text><text x="74" y="963" fill="#68788D" font-size="10" font-weight="400" font-family="Be Vietnam Pro, Segoe UI, Arial, sans-serif">VAULT Consulting</text><rect x="225" y="0" width="1215" height="78" rx="0" fill="white"></rect><text x="264" y="47" fill="#68788D" font-size="12" font-weight="400" font-family="Be Vietnam Pro, Segoe UI, Arial, sans-serif">Workspace / Công ty Công nghệ An Việt</text><rect x="1228" y="25" width="164" height="28" rx="6" fill="#F0F3F7"></rect><text x="1239" y="44" fill="#68788D" font-size="11" font-weight="500" font-family="Be Vietnam Pro, Segoe UI, Arial, sans-serif">BẢN THIẾT KẾ</text><path d="M224 78H1440" stroke="#E3E8EF"></path><text x="264" y="131" fill="#17212F" font-size="27" font-weight="600" font-family="Be Vietnam Pro, Segoe UI, Arial, sans-serif">Công ty Công nghệ An Việt</text><text x="264" y="160" fill="#68788D" font-size="12" font-weight="400" font-family="Be Vietnam Pro, Segoe UI, Arial, sans-serif">DN-001 · Phần mềm · Miền Bắc · Cập nhật 12/09/2026</text><rect x="1217" y="108" width="175" height="42" rx="8" fill="#C62828"></rect><text x="1233" y="135" fill="white" font-size="13" font-weight="600" font-family="Be Vietnam Pro, Segoe UI, Arial, sans-serif">Chỉnh sửa hồ sơ</text><a href="#intake" data-target="intake"><rect x="1217" y="108" width="175" height="42" fill="transparent"></rect></a><rect x="264" y="189" width="151" height="42" rx="8" fill="#C62828"></rect><text x="280" y="216" fill="white" font-size="13" font-weight="600" font-family="Be Vietnam Pro, Segoe UI, Arial, sans-serif">Tổng quan</text><rect x="427" y="189" width="176" height="42" rx="8" fill="white" stroke="#E3E8EF"></rect><text x="443" y="216" fill="#17212F" font-size="13" font-weight="600" font-family="Be Vietnam Pro, Segoe UI, Arial, sans-serif">Xem trước hồ sơ</text><a href="#layer1" data-target="layer1"><rect x="427" y="189" width="176" height="42" fill="transparent"></rect></a><rect x="615" y="189" width="153" height="42" rx="8" fill="white" stroke="#E3E8EF"></rect><text x="631" y="216" fill="#17212F" font-size="13" font-weight="600" font-family="Be Vietnam Pro, Segoe UI, Arial, sans-serif">Data Rooms</text><a href="#rooms" data-target="rooms"><rect x="615" y="189" width="153" height="42" fill="transparent"></rect></a><rect x="264" y="253" width="728" height="285" rx="12" fill="white" stroke="#E3E8EF"></rect><text x="288" y="287" fill="#17212F" font-size="16" font-weight="600" font-family="Be Vietnam Pro, Segoe UI, Arial, sans-serif">Thông tin doanh nghiệp</text><text x="288" y="311" fill="#68788D" font-size="12" font-weight="400" font-family="Be Vietnam Pro, Segoe UI, Arial, sans-serif">Xác minh ở cấp dữ kiện; không phải chứng nhận toàn doanh nghiệp.</text><text x="288" y="349" fill="#68788D" font-size="11" font-weight="400" font-family="Be Vietnam Pro, Segoe UI, Arial, sans-serif">Tên pháp lý</text><text x="288" y="373" fill="#17212F" font-size="13" font-weight="500" font-family="Be Vietnam Pro, Segoe UI, Arial, sans-serif">Công ty Công nghệ An Việt</text><rect x="761" y="348" width="207" height="28" rx="6" fill="#EFF9F2"></rect><text x="772" y="367" fill="#166534" font-size="11" font-weight="500" font-family="Be Vietnam Pro, Segoe UI, Arial, sans-serif">Đối chiếu tài liệu</text><path d="M288 392H968" stroke="#E3E8EF"></path><text x="288" y="418" fill="#68788D" font-size="11" font-weight="400" font-family="Be Vietnam Pro, Segoe UI, Arial, sans-serif">Số nhân sự</text><text x="288" y="442" fill="#17212F" font-size="13" font-weight="500" font-family="Be Vietnam Pro, Segoe UI, Arial, sans-serif">120 nhân sự</text><rect x="761" y="417" width="207" height="28" rx="6" fill="#F0F3F7"></rect><text x="772" y="436" fill="#68788D" font-size="11" font-weight="500" font-family="Be Vietnam Pro, Segoe UI, Arial, sans-serif">Tự khai báo</text><path d="M288 461H968" stroke="#E3E8EF"></path><text x="288" y="487" fill="#68788D" font-size="11" font-weight="400" font-family="Be Vietnam Pro, Segoe UI, Arial, sans-serif">Doanh thu 2025</text><text x="288" y="511" fill="#17212F" font-size="13" font-weight="500" font-family="Be Vietnam Pro, Segoe UI, Arial, sans-serif">85.000.000.000 VND</text><rect x="761" y="486" width="207" height="28" rx="6" fill="#EFF5FF"></rect><text x="772" y="505" fill="#245AA7" font-size="11" font-weight="500" font-family="Be Vietnam Pro, Segoe UI, Arial, sans-serif">Bên thứ ba xác nhận</text><path d="M288 530H968" stroke="#E3E8EF"></path><rect x="1016" y="253" width="376" height="285" rx="12" fill="white" stroke="#E3E8EF"></rect><text x="1040" y="287" fill="#17212F" font-size="16" font-weight="600" font-family="Be Vietnam Pro, Segoe UI, Arial, sans-serif">Cần bổ sung</text><text x="1040" y="311" fill="#68788D" font-size="12" font-weight="400" font-family="Be Vietnam Pro, Segoe UI, Arial, sans-serif">Giữ thông tin còn thiếu hiển thị rõ ràng.</text><rect x="1040" y="338" width="181" height="28" rx="6" fill="#FFF7E8"></rect><text x="1051" y="357" fill="#9A5412" font-size="11" font-weight="500" font-family="Be Vietnam Pro, Segoe UI, Arial, sans-serif">2 dữ kiện còn thiếu</text><text x="1040" y="397" fill="#17212F" font-size="13" font-weight="400" font-family="Be Vietnam Pro, Segoe UI, Arial, sans-serif">EBITDA 2024</text><text x="1040" y="424" fill="#17212F" font-size="13" font-weight="400" font-family="Be Vietnam Pro, Segoe UI, Arial, sans-serif">EBITDA 2023</text><text x="1040" y="482" fill="#68788D" font-size="11" font-weight="400" font-family="Be Vietnam Pro, Segoe UI, Arial, sans-serif">Không thay dữ liệu thiếu bằng số 0.</text><rect x="264" y="558" width="728" height="249" rx="12" fill="white" stroke="#E3E8EF"></rect><text x="288" y="592" fill="#17212F" font-size="16" font-weight="600" font-family="Be Vietnam Pro, Segoe UI, Arial, sans-serif">Tài chính</text><text x="288" y="616" fill="#68788D" font-size="12" font-weight="400" font-family="Be Vietnam Pro, Segoe UI, Arial, sans-serif">VND · Dữ liệu minh họa</text><text x="288" y="646" fill="#68788D" font-size="10" font-weight="600" font-family="Be Vietnam Pro, Segoe UI, Arial, sans-serif">NĂM</text><text x="412" y="646" fill="#68788D" font-size="10" font-weight="600" font-family="Be Vietnam Pro, Segoe UI, Arial, sans-serif">DOANH THU</text><text x="714" y="646" fill="#68788D" font-size="10" font-weight="600" font-family="Be Vietnam Pro, Segoe UI, Arial, sans-serif">EBITDA</text><text x="288" y="682" fill="#17212F" font-size="12" font-weight="400" font-family="Be Vietnam Pro, Segoe UI, Arial, sans-serif">2025</text><text x="412" y="682" fill="#17212F" font-size="13" font-weight="500" font-family="Be Vietnam Pro, Segoe UI, Arial, sans-serif">85.000.000.000</text><text x="714" y="682" fill="#17212F" font-size="12" font-weight="400" font-family="Be Vietnam Pro, Segoe UI, Arial, sans-serif">12.000.000.000</text><path d="M288 697H968" stroke="#E3E8EF"></path><text x="288" y="727" fill="#17212F" font-size="12" font-weight="400" font-family="Be Vietnam Pro, Segoe UI, Arial, sans-serif">2024</text><text x="412" y="727" fill="#17212F" font-size="13" font-weight="500" font-family="Be Vietnam Pro, Segoe UI, Arial, sans-serif">68.000.000.000</text><text x="714" y="727" fill="#68788D" font-size="12" font-weight="400" font-family="Be Vietnam Pro, Segoe UI, Arial, sans-serif">Chưa cung cấp</text><path d="M288 742H968" stroke="#E3E8EF"></path><text x="288" y="772" fill="#17212F" font-size="12" font-weight="400" font-family="Be Vietnam Pro, Segoe UI, Arial, sans-serif">2023</text><text x="412" y="772" fill="#17212F" font-size="13" font-weight="500" font-family="Be Vietnam Pro, Segoe UI, Arial, sans-serif">51.000.000.000</text><text x="714" y="772" fill="#68788D" font-size="12" font-weight="400" font-family="Be Vietnam Pro, Segoe UI, Arial, sans-serif">Chưa cung cấp</text><path d="M288 787H968" stroke="#E3E8EF"></path><rect x="1016" y="558" width="376" height="333" rx="12" fill="white" stroke="#E3E8EF"></rect><text x="1040" y="592" fill="#17212F" font-size="16" font-weight="600" font-family="Be Vietnam Pro, Segoe UI, Arial, sans-serif">Nguồn của doanh thu 2025</text><rect x="1040" y="613" width="213" height="28" rx="6" fill="#EFF5FF"></rect><text x="1051" y="632" fill="#245AA7" font-size="11" font-weight="500" font-family="Be Vietnam Pro, Segoe UI, Arial, sans-serif">Bên thứ ba xác nhận</text><text x="1040" y="674" fill="#68788D" font-size="9" font-weight="600" font-family="Be Vietnam Pro, Segoe UI, Arial, sans-serif">NGUỒN / NGÀY</text><text x="1040" y="696" fill="#17212F" font-size="12" font-weight="400" font-family="Be Vietnam Pro, Segoe UI, Arial, sans-serif">BCTC 2025 · 31/03/2026</text><text x="1040" y="730" fill="#68788D" font-size="9" font-weight="600" font-family="Be Vietnam Pro, Segoe UI, Arial, sans-serif">NGƯỜI NHẬP</text><text x="1040" y="752" fill="#17212F" font-size="12" font-weight="400" font-family="Be Vietnam Pro, Segoe UI, Arial, sans-serif">Linh Trần · 11/09/2026</text><text x="1040" y="786" fill="#68788D" font-size="9" font-weight="600" font-family="Be Vietnam Pro, Segoe UI, Arial, sans-serif">NGƯỜI RÀ SOÁT / NGÀY</text><text x="1040" y="808" fill="#17212F" font-size="12" font-weight="400" font-family="Be Vietnam Pro, Segoe UI, Arial, sans-serif">Minh Nguyễn · 12/09/2026</text><text x="1040" y="859" fill="#68788D" font-size="10" font-weight="400" font-family="Be Vietnam Pro, Segoe UI, Arial, sans-serif">Ghi chú: xác nhận theo tài liệu mẫu.</text><rect x="264" y="827" width="728" height="94" rx="12" fill="white" stroke="#E3E8EF"></rect><g transform="translate(288 850) scale(0.8333333333333334)" fill="none" stroke="#C62828" stroke-width="1.7" stroke-linecap="round" stroke-linejoin="round"><path d="M3 7V4h6l3 3h9v13H3Z"></path></g><text x="322" y="862" fill="#17212F" font-size="13" font-weight="600" font-family="Be Vietnam Pro, Segoe UI, Arial, sans-serif">An Việt · Đầu tư chiến lược 2026</text><text x="322" y="887" fill="#68788D" font-size="11" font-weight="400" font-family="Be Vietnam Pro, Segoe UI, Arial, sans-serif">6 nhóm tài liệu · 12 tài liệu</text><g transform="translate(947 862) scale(0.8333333333333334)" fill="none" stroke="#C62828" stroke-width="1.7" stroke-linecap="round" stroke-linejoin="round"><path d="M4 12h16m-6-6 6 6-6 6"></path></g><a href="#files" data-target="files"><rect x="264" y="827" width="728" height="94" fill="transparent"></rect></a></svg>